<?xml version="1.0" standalone="no"?>
<!DOCTYPE svg PUBLIC "-//W3C//DTD SVG 20010904//EN"
 "http://www.w3.org/TR/2001/REC-SVG-20010904/DTD/svg10.dtd">
<svg version="1.0" xmlns="http://www.w3.org/2000/svg"
 width="1000.000000pt" height="1000.000000pt" viewBox="0 0 1000.000000 1000.000000"
 preserveAspectRatio="xMidYMid meet">
<metadata>
Created by potrace 1.14, written by Peter Selinger 2001-2017
</metadata>
<g transform="translate(0.000000,1000.000000) scale(0.100000,-0.100000)"
fill="#000000" stroke="none">
<path d="M0 5000 l0 -5000 5000 0 5000 0 0 5000 0 5000 -5000 0 -5000 0 0
-5000z m4670 2680 l0 -540 -595 0 -595 0 0 -1710 0 -1710 -570 0 -570 0 0
1710 0 1710 -600 0 -600 0 0 540 0 540 1765 0 1765 0 0 -540z m3890 -10 l0
-540 -990 0 -990 0 0 -400 0 -400 865 0 865 0 0 -530 0 -530 -865 0 -865 0 0
-775 0 -775 -570 0 -570 0 -1 1518 c0 834 0 1751 0 2037 0 286 1 613 1 728 l0
207 1560 0 1560 0 0 -540z m-5930 -4611 c69 -14 139 -43 209 -87 61 -38 161
-129 161 -146 -1 -6 -59 -55 -129 -108 l-128 -97 -24 25 c-13 14 -56 41 -96
61 -171 85 -343 35 -343 -99 0 -80 75 -127 266 -169 336 -73 474 -198 499
-455 28 -285 -195 -512 -546 -555 -156 -19 -300 16 -441 107 -62 40 -188 156
-188 173 0 4 55 59 123 123 l122 115 40 -35 c22 -19 73 -51 114 -70 61 -30 88
-36 155 -40 105 -5 156 9 195 53 86 98 -5 187 -233 230 -167 31 -271 79 -362
166 -99 96 -144 203 -144 345 0 333 339 542 750 463z m3210 -10 c214 -51 366
-177 432 -360 22 -63 23 -73 23 -439 0 -366 -1 -376 -23 -439 -65 -180 -213
-305 -428 -362 -113 -30 -297 -30 -417 -1 -223 55 -372 179 -439 363 -22 62
-23 73 -23 429 0 326 2 372 19 433 83 302 465 470 856 376z m-2080 -299 l0
-310 235 0 235 0 0 310 0 310 205 0 205 0 0 -810 0 -810 -205 0 -205 0 0 305
0 305 -235 0 -235 0 0 -305 0 -305 -205 0 -205 0 0 810 0 810 205 0 205 0 0
-310z m3704 286 c100 -29 176 -74 247 -145 108 -108 159 -239 159 -406 0 -167
-52 -298 -159 -405 -126 -125 -224 -159 -483 -167 l-178 -6 0 -233 0 -234
-205 0 -205 0 0 811 0 811 383 -5 c324 -3 391 -7 441 -21z"/>
<path d="M5523 2696 c-61 -20 -109 -53 -133 -91 -20 -33 -21 -44 -18 -364 l3
-330 34 -35 c100 -103 342 -103 442 0 l34 35 3 331 3 331 -25 37 c-38 58 -118
93 -220 97 -50 2 -97 -2 -123 -11z"/>
<path d="M7050 2476 l0 -206 138 0 c111 0 144 4 177 19 72 33 105 93 105 188
0 74 -26 132 -76 169 -37 29 -39 29 -191 32 l-153 3 0 -205z"/>
</g>
</svg>
